<svg width="1866" height="410" viewBox="0 0 1866 410" fill="none" xmlns="http://www.w3.org/2000/svg">
<g clip-path="url(#clip0_1_14)">
<path d="M130.118 0C181.098 0 243.824 10.6389 270.294 31.9168C296.765 53.1946 310 82.7672 310 120.635C310 158.502 296.601 188.255 269.804 209.893C243.333 231.532 180.771 242.351 130.118 242.351H88.3137V403H0V0H130.118ZM131.235 175.272C159.013 175.272 189.784 170.583 201.549 161.207C213.641 151.469 219.686 137.945 219.686 120.635C219.686 103.324 213.641 90.1604 201.549 81.1444C189.784 71.7677 159.013 67.0793 131.235 67.0793H88.3137V175.272H131.235Z" fill="#00174D"/>
<path d="M333 123H421.108V403.27H333V123Z" fill="#00174D"/>
<rect x="338" y="25" width="78" height="80" rx="39" fill="#EB5757"/>
<path d="M825.416 408.847C793.524 408.847 766.239 401.937 743.56 388.117C721.236 373.943 704.227 355.517 692.533 332.838C681.194 310.159 675.524 285.886 675.524 260.018C675.524 234.504 681.194 210.408 692.533 187.73C704.227 165.051 721.236 146.802 743.56 132.982C766.239 118.808 793.524 111.721 825.416 111.721C856.245 111.721 882.29 118.808 903.551 132.982C925.167 147.156 941.467 166.646 952.452 191.45C963.437 215.901 969.284 243.541 969.993 274.369H762.164C764.645 295.985 771.909 313.88 783.957 328.054C796.005 342.228 809.825 349.315 825.416 349.315C842.071 349.315 855.182 344.709 864.75 335.495C874.317 325.928 881.404 312.462 886.011 295.099L964.146 310.514C957.768 337.799 943.062 361.009 920.029 380.144C897.35 399.279 865.813 408.847 825.416 408.847ZM884.416 225.468C872.014 189.324 852.347 171.252 825.416 171.252C812.305 171.252 800.257 176.213 789.272 186.135C778.642 196.057 770.846 209.168 765.885 225.468H884.416Z" fill="#00174D"/>
<path d="M1348.47 111.721C1380.72 111.721 1405.88 123.946 1423.95 148.396C1442.38 172.492 1451.59 209.168 1451.59 258.423V403H1364.95V269.586C1364.95 232.733 1360.87 207.219 1352.72 193.045C1344.93 178.517 1333.23 171.252 1317.64 171.252C1281.85 171.252 1263.96 213.066 1263.96 296.694V403H1177.32V269.586C1177.32 232.733 1173.24 207.219 1165.09 193.045C1157.3 178.517 1145.6 171.252 1130.01 171.252C1094.22 171.252 1076.33 213.066 1076.33 296.694V403H989.688V117.568H1076.33V174.973C1085.89 153.003 1097.94 137.057 1112.47 127.135C1127.35 116.859 1143.48 111.721 1160.84 111.721C1184.58 111.721 1204.78 118.453 1221.44 131.919C1238.09 145.384 1249.96 166.114 1257.05 194.108C1265.91 165.405 1278.49 144.498 1294.79 131.387C1311.09 118.276 1328.98 111.721 1348.47 111.721Z" fill="#00174D"/>
<path d="M541.72 320V325V402H451.99L450 121.5H530C567.958 121.5 570.5 118 611.5 130.5C642.841 140.055 668.5 187.015 668.5 212C668.5 232.18 668.5 276.5 643 294C629.066 306.012 633.131 304.916 601.9 309L703 402H601.9L541.72 320ZM512.018 267H541.72C557 267 559 264 570.5 260.5C579.149 255.215 601.9 235.291 601.9 224C604.356 214.062 582 188.5 582 188.5C582 188.5 562.621 180.572 541.72 180.572H512.018V267Z" fill="#00174D"/>
<rect x="1476" y="30" width="82" height="82" rx="41" fill="#EB5757"/>
<path d="M1474 181H1560V402H1474V181Z" fill="#00174D"/>
<path d="M1866 316C1855.49 347.952 1851.49 357.129 1825 378.991C1798.51 400.853 1779.39 410 1744.5 410C1700.78 410 1684.37 402.955 1660.41 378.991C1636.44 355.027 1624.46 315.655 1624.46 274.874V175.414H1474V122.351H1624.46V57H1714.25V122.351H1843.65V175.414H1714.25V274.874C1714.25 316.495 1716.75 350 1744.5 350C1772.25 350 1773.5 353.5 1801 289L1866 316Z" fill="#00174D"/>
</g>
<defs>
<clipPath id="clip0_1_14">
<rect width="1866" height="410" fill="white"/>
</clipPath>
</defs>
</svg>
