<svg width="165" height="36" viewBox="0 0 165 36" fill="none" xmlns="http://www.w3.org/2000/svg">
<g opacity="0.6">
<path d="M12.003 0C16.4794 0 21.987 0.93415 24.3112 2.80245C26.6355 4.67075 27.7976 7.26737 27.7976 10.5923C27.7976 13.9172 26.6211 16.5297 24.2682 18.4297C21.9439 20.3296 16.4507 21.2796 12.003 21.2796H8.33244V35.3854H0.578064V0H12.003ZM12.1012 15.3897C14.5402 15.3897 17.2421 14.9781 18.2751 14.1547C19.3367 13.2998 19.8676 12.1123 19.8676 10.5923C19.8676 9.07234 19.3367 7.91652 18.2751 7.12487C17.2421 6.30155 14.5402 5.88989 12.1012 5.88989H8.33244V15.3897H12.1012Z" fill="#656464"/>
<path d="M29.8171 10.7998H37.5534V35.4089H29.8171V10.7998Z" fill="#656464"/>
<rect x="30.2561" y="2.19531" width="6.84878" height="7.02439" rx="3.42439" fill="#656464"/>
<path d="M73.0536 35.8987C70.2534 35.8987 67.8576 35.292 65.8663 34.0785C63.9061 32.834 62.4126 31.216 61.3859 29.2247C60.3902 27.2334 59.8924 25.1021 59.8924 22.8308C59.8924 20.5906 60.3902 18.4748 61.3859 16.4835C62.4126 14.4922 63.9061 12.8899 65.8663 11.6764C67.8576 10.4319 70.2534 9.80957 73.0536 9.80957C75.7606 9.80957 78.0474 10.4319 79.9143 11.6764C81.8122 12.921 83.2435 14.6322 84.208 16.8102C85.1726 18.9571 85.6859 21.384 85.7482 24.0909H67.4998C67.7176 25.9889 68.3554 27.5601 69.4133 28.8047C70.4712 30.0493 71.6846 30.6715 73.0536 30.6715C74.516 30.6715 75.6672 30.2671 76.5073 29.4581C77.3474 28.618 77.9697 27.4357 78.3741 25.9111L85.2348 27.2645C84.6747 29.6603 83.3835 31.6983 81.3611 33.3785C79.3698 35.0586 76.6006 35.8987 73.0536 35.8987ZM78.2341 19.7972C77.1451 16.6235 75.4183 15.0367 73.0536 15.0367C71.9024 15.0367 70.8445 15.4723 69.88 16.3435C68.9466 17.2147 68.2621 18.3659 67.8265 19.7972H78.2341Z" fill="#656464"/>
<path d="M118.98 9.80957C121.812 9.80957 124.021 10.883 125.608 13.0299C127.226 15.1456 128.035 18.3659 128.035 22.6908V35.3853H120.427V23.6709C120.427 20.435 120.069 18.1948 119.354 16.9502C118.669 15.6746 117.643 15.0367 116.274 15.0367C113.131 15.0367 111.56 18.7082 111.56 26.0511V35.3853H103.952V23.6709C103.952 20.435 103.595 18.1948 102.879 16.9502C102.194 15.6746 101.168 15.0367 99.7986 15.0367C96.6561 15.0367 95.0848 18.7082 95.0848 26.0511V35.3853H87.4775V10.323H95.0848V15.3634C95.9249 13.4344 96.9828 12.0342 98.2585 11.163C99.5653 10.2607 100.981 9.80957 102.506 9.80957C104.59 9.80957 106.364 10.4007 107.826 11.5831C109.288 12.7654 110.331 14.5856 110.953 17.0436C111.731 14.5233 112.835 12.6876 114.267 11.5364C115.698 10.3852 117.269 9.80957 118.98 9.80957Z" fill="#656464"/>
<path d="M48.1437 28.0978V28.5368V35.2978H40.265L40.0903 10.6685H47.1147C50.4476 10.6685 50.6708 10.3612 54.2708 11.4588C57.0227 12.2977 59.2756 16.421 59.2756 18.6148C59.2756 20.3868 59.2756 24.2783 57.0366 25.8149C55.8131 26.8696 56.1701 26.7733 53.4278 27.1319L62.3049 35.2978H53.4278L48.1437 28.0978ZM45.5358 23.4441H48.1437C49.4854 23.4441 49.661 23.1807 50.6708 22.8734C51.4302 22.4093 53.4278 20.6599 53.4278 19.6685C53.6435 18.7959 51.6805 16.5514 51.6805 16.5514C51.6805 16.5514 49.9789 15.8553 48.1437 15.8553H45.5358V23.4441Z" fill="#656464"/>
<rect x="130.178" y="2.63379" width="7.2" height="7.2" rx="3.6" fill="#656464"/>
<path d="M130.002 15.8926H137.554V35.2975H130.002V15.8926Z" fill="#656464"/>
<path d="M164.422 27.7463C163.499 30.5519 163.148 31.3577 160.822 33.2773C158.496 35.1968 156.818 36 153.754 36C149.915 36 148.474 35.3814 146.37 33.2773C144.266 31.1731 143.214 27.716 143.214 24.1353V15.4022H130.002V10.7431H143.214V5.00488H151.098V10.7431H162.459V15.4022H151.098V24.1353C151.098 27.7899 151.317 30.7317 153.754 30.7317C156.19 30.7317 156.3 31.039 158.715 25.3756L164.422 27.7463Z" fill="#656464"/>
</g>
</svg>
